<?xml version="1.0" encoding="UTF-8" standalone="no"?>
<svg
   width="57.459629mm"
   height="15.473937mm"
   version="1.2"
   id="svg57"
   sodipodi:docname="logo_large.svg"
   inkscape:version="1.3 (0e150ed6c4, 2023-07-21)"
   xmlns:inkscape="http://www.inkscape.org/namespaces/inkscape"
   xmlns:sodipodi="http://sodipodi.sourceforge.net/DTD/sodipodi-0.dtd"
   xmlns="http://www.w3.org/2000/svg"
   xmlns:svg="http://www.w3.org/2000/svg">
  <sodipodi:namedview
     id="namedview57"
     pagecolor="#ffffff"
     bordercolor="#000000"
     borderopacity="0.25"
     inkscape:showpageshadow="2"
     inkscape:pageopacity="0.0"
     inkscape:pagecheckerboard="0"
     inkscape:deskcolor="#d1d1d1"
     inkscape:document-units="mm"
     inkscape:zoom="2.501956"
     inkscape:cx="86.532297"
     inkscape:cy="61.351998"
     inkscape:window-width="1920"
     inkscape:window-height="1017"
     inkscape:window-x="-8"
     inkscape:window-y="-8"
     inkscape:window-maximized="1"
     inkscape:current-layer="svg57" />
  <desc
     id="desc1">Created by EvoPdf</desc>
  <defs
     id="defs1" />
  <g
     fill="none"
     stroke="#000000"
     stroke-width="1"
     fill-rule="evenodd"
     stroke-linecap="square"
     stroke-linejoin="bevel"
     id="g57"
     style="fill:#f17228;fill-opacity:1"
     transform="translate(-8.00845,-7.9999382)">
    <g
       fill="#000000"
       fill-opacity="1"
       stroke="#000000"
       stroke-opacity="1"
       stroke-width="1"
       stroke-linecap="square"
       stroke-linejoin="miter"
       stroke-miterlimit="2"
       id="g1"
       style="fill:#f17228;fill-opacity:1" />
    <g
       fill="#000000"
       fill-opacity="1"
       stroke="#000000"
       stroke-opacity="1"
       stroke-width="1"
       stroke-linecap="square"
       stroke-linejoin="miter"
       stroke-miterlimit="2"
       id="g2"
       style="fill:#f17228;fill-opacity:1" />
    <g
       fill="#000000"
       fill-opacity="1"
       stroke="#000000"
       stroke-opacity="1"
       stroke-width="1"
       stroke-linecap="square"
       stroke-linejoin="miter"
       stroke-miterlimit="2"
       id="g3"
       style="fill:#f17228;fill-opacity:1" />
    <g
       fill="#000000"
       fill-opacity="1"
       stroke="#000000"
       stroke-opacity="1"
       stroke-width="1"
       stroke-linecap="square"
       stroke-linejoin="miter"
       stroke-miterlimit="2"
       id="g4"
       style="fill:#f17228;fill-opacity:1" />
    <g
       fill="#000000"
       fill-opacity="1"
       stroke="#000000"
       stroke-opacity="1"
       stroke-width="1"
       stroke-linecap="square"
       stroke-linejoin="miter"
       stroke-miterlimit="2"
       transform="matrix(0.622439,0,0,0.622439,8.00845,8)"
       id="g5"
       style="fill:#f17228;fill-opacity:1" />
    <g
       fill="#000000"
       fill-opacity="1"
       stroke="#000000"
       stroke-opacity="1"
       stroke-width="1"
       stroke-linecap="square"
       stroke-linejoin="miter"
       stroke-miterlimit="2"
       transform="matrix(1.56261,0,0,1.56261,8.00845,17.1751)"
       id="g6"
       style="fill:#f17228;fill-opacity:1" />
    <g
       fill="#ffa833"
       fill-opacity="1"
       stroke="none"
       transform="matrix(1.56261,0,0,1.56261,8.00845,17.1751)"
       id="g7"
       style="fill:#f17228;fill-opacity:1">
      <path
         vector-effect="none"
         fill-rule="nonzero"
         d="M 4.66,12.46 H 1.9 V 18.1 H 4.68 V 20 H 0 V 5.72 h 4.68 v 1.9 H 1.9 v 2.94 h 2.76 v 1.9 0 M 11.554,20 10.834,15.06 H 8.814 L 8.154,20 H 6.234 L 8.394,5.7 h 2.58 l 2.5,14.3 h -1.92 v 0 m -2.48,-6.84 h 1.48 l -0.76,-5.2 -0.72,5.2 M 20.388,5.68 V 7.6 h -2.38 v 12.42 h -1.92 V 7.6 h -2.62 V 5.68 h 6.92 v 0"
         id="path6"
         style="fill:#ffa712;fill-opacity:1" />
    </g>
    <g
       fill="#000000"
       fill-opacity="1"
       stroke="#000000"
       stroke-opacity="1"
       stroke-width="1"
       stroke-linecap="square"
       stroke-linejoin="miter"
       stroke-miterlimit="2"
       transform="matrix(1.56261,0,0,1.56261,8.00845,17.1751)"
       id="g8"
       style="fill:#f17228;fill-opacity:1" />
    <g
       fill="#000000"
       fill-opacity="1"
       stroke="#000000"
       stroke-opacity="1"
       stroke-width="1"
       stroke-linecap="square"
       stroke-linejoin="miter"
       stroke-miterlimit="2"
       transform="matrix(0.622439,0,0,0.622439,8.00845,8)"
       id="g9"
       style="fill:#f17228;fill-opacity:1" />
    <g
       fill="#000000"
       fill-opacity="1"
       stroke="#000000"
       stroke-opacity="1"
       stroke-width="1"
       stroke-linecap="square"
       stroke-linejoin="miter"
       stroke-miterlimit="2"
       transform="matrix(1.39253,0,0,1.39253,50.8091,-11.5853)"
       id="g10"
       style="fill:#f17228;fill-opacity:1" />
    <g
       fill="#f58d00"
       fill-opacity="1"
       stroke="none"
       transform="matrix(1.39253,0,0,1.39253,50.8091,-11.5853)"
       id="g11"
       style="fill:#f17228;fill-opacity:1">
      <path
         vector-effect="none"
         fill-rule="nonzero"
         d="m 32,47.29 c -0.159,0 -0.317,-0.038 -0.461,-0.113 l -30,-15.613 C 1.208,31.392 1,31.05 1,30.677 1,30.304 1.208,29.962 1.539,29.79 l 30,-15.613 c 0.289,-0.15 0.634,-0.15 0.923,0 l 30,15.613 c 0.33,0.172 0.538,0.514 0.538,0.887 0,0.373 -0.208,0.715 -0.538,0.887 l -30,15.613 C 32.317,47.252 32.159,47.29 32,47.29 M 4.166,30.677 32,45.163 59.834,30.677 32,16.19 4.166,30.677"
         id="path10"
         style="fill:#f17228;fill-opacity:1" />
    </g>
    <g
       fill="#000000"
       fill-opacity="1"
       stroke="#000000"
       stroke-opacity="1"
       stroke-width="1"
       stroke-linecap="square"
       stroke-linejoin="miter"
       stroke-miterlimit="2"
       transform="matrix(1.39253,0,0,1.39253,50.8091,-11.5853)"
       id="g12"
       style="fill:#f17228;fill-opacity:1" />
    <g
       fill="#f58d00"
       fill-opacity="1"
       stroke="none"
       transform="matrix(1.39253,0,0,1.39253,50.8091,-11.5853)"
       id="g13"
       style="fill:#f17228;fill-opacity:1">
      <path
         vector-effect="none"
         fill-rule="nonzero"
         d="m 32,56.063 c -0.153,0 -0.307,-0.035 -0.447,-0.105 l -30,-15.007 C 1.214,40.781 1,40.436 1,40.057 v -8.579 c 0,-0.553 0.448,-1 1,-1 0.552,0 1,0.447 1,1 v 7.961 L 31.985,53.938 61,38.438 v -7.762 c 0,-0.553 0.447,-1 1,-1 0.553,0 1,0.447 1,1 v 8.361 c 0,0.369 -0.203,0.708 -0.529,0.882 l -30,16.025 c -0.147,0.08 -0.309,0.119 -0.471,0.119"
         id="path12"
         style="fill:#f17228;fill-opacity:1" />
    </g>
    <g
       fill="#000000"
       fill-opacity="1"
       stroke="#000000"
       stroke-opacity="1"
       stroke-width="1"
       stroke-linecap="square"
       stroke-linejoin="miter"
       stroke-miterlimit="2"
       transform="matrix(1.39253,0,0,1.39253,50.8091,-11.5853)"
       id="g14"
       style="fill:#f17228;fill-opacity:1" />
    <g
       fill="#f58d00"
       fill-opacity="1"
       stroke="none"
       transform="matrix(1.39253,0,0,1.39253,50.8091,-11.5853)"
       id="g15"
       style="fill:#f17228;fill-opacity:1">
      <path
         vector-effect="none"
         fill-rule="nonzero"
         d="m 32,56.063 c -0.552,0 -1,-0.447 -1,-1 V 46.29 c 0,-0.553 0.448,-1 1,-1 0.552,0 1,0.447 1,1 v 8.773 c 0,0.553 -0.448,1 -1,1"
         id="path14"
         style="fill:#f17228;fill-opacity:1" />
    </g>
    <g
       fill="#000000"
       fill-opacity="1"
       stroke="#000000"
       stroke-opacity="1"
       stroke-width="1"
       stroke-linecap="square"
       stroke-linejoin="miter"
       stroke-miterlimit="2"
       transform="matrix(1.39253,0,0,1.39253,50.8091,-11.5853)"
       id="g16"
       style="fill:#f17228;fill-opacity:1" />
    <g
       fill="#000000"
       fill-opacity="1"
       stroke="#000000"
       stroke-opacity="1"
       stroke-width="1"
       stroke-linecap="square"
       stroke-linejoin="miter"
       stroke-miterlimit="2"
       transform="matrix(1.39253,0,0,1.39253,50.8091,-11.5853)"
       id="g17"
       style="fill:#f17228;fill-opacity:1" />
    <g
       fill="#f58d00"
       fill-opacity="1"
       stroke="none"
       transform="matrix(1.39253,0,0,1.39253,50.8091,-11.5853)"
       id="g18"
       style="fill:#f17228;fill-opacity:1">
      <path
         vector-effect="none"
         fill-rule="nonzero"
         d="m 25.21,39.752 c -0.176,0 -0.351,-0.047 -0.506,-0.138 -0.237,-0.14 -0.407,-0.371 -0.469,-0.64 -0.693,-3.036 -0.793,-6.289 -0.288,-9.407 0.516,-3.153 1.621,-6.162 3.284,-8.944 0.139,-0.231 0.365,-0.397 0.628,-0.459 0.262,-0.064 0.539,-0.016 0.767,0.129 l 18.069,11.479 c 0.331,0.21 0.509,0.595 0.454,0.983 -0.055,0.388 -0.332,0.71 -0.709,0.82 l -20.949,6.137 c -0.092,0.026 -0.187,0.04 -0.281,0.04 m 3.228,-17.208 c -1.252,2.311 -2.098,4.776 -2.518,7.345 -0.407,2.511 -0.387,5.116 0.053,7.598 l 17.785,-5.21 -14.137,-8.981 -1.183,-0.752"
         id="path17"
         style="fill:#f17228;fill-opacity:1" />
    </g>
    <g
       fill="#000000"
       fill-opacity="1"
       stroke="#000000"
       stroke-opacity="1"
       stroke-width="1"
       stroke-linecap="square"
       stroke-linejoin="miter"
       stroke-miterlimit="2"
       transform="matrix(1.39253,0,0,1.39253,50.8091,-11.5853)"
       id="g19"
       style="fill:#f17228;fill-opacity:1" />
    <g
       fill="#f58d00"
       fill-opacity="1"
       stroke="none"
       transform="matrix(1.39253,0,0,1.39253,50.8091,-11.5853)"
       id="g20"
       style="fill:#f17228;fill-opacity:1">
      <path
         vector-effect="none"
         fill-rule="nonzero"
         d="m 31.91,30.261 c -0.083,0 -0.167,-0.007 -0.251,-0.019 -0.437,-0.066 -0.821,-0.298 -1.081,-0.652 v -0.001 c -0.537,-0.732 -0.375,-1.775 0.361,-2.324 0.365,-0.27 0.809,-0.383 1.252,-0.314 0.437,0.065 0.821,0.297 1.081,0.652 0.538,0.733 0.376,1.776 -0.363,2.325 -0.295,0.218 -0.642,0.333 -0.999,0.333 m -0.246,-1.468 c 0.056,0.072 0.139,0.121 0.228,0.135 0.084,0.009 0.173,-0.009 0.241,-0.059 0.142,-0.106 0.167,-0.313 0.058,-0.462 l -0.527,0.386 m 0.243,-0.532 c -0.069,0 -0.137,0.021 -0.191,0.062 -0.142,0.105 -0.167,0.313 -0.058,0.463 0.002,0.003 0.004,0.005 0.006,0.008 l 0.526,-0.387 c -0.056,-0.076 -0.142,-0.128 -0.234,-0.143 -0.017,-0.002 -0.033,-0.003 -0.049,-0.003"
         id="path19"
         style="fill:#f17228;fill-opacity:1" />
    </g>
    <g
       fill="#000000"
       fill-opacity="1"
       stroke="#000000"
       stroke-opacity="1"
       stroke-width="1"
       stroke-linecap="square"
       stroke-linejoin="miter"
       stroke-miterlimit="2"
       transform="matrix(1.39253,0,0,1.39253,50.8091,-11.5853)"
       id="g21"
       style="fill:#f17228;fill-opacity:1" />
    <g
       fill="#f58d00"
       fill-opacity="1"
       stroke="none"
       transform="matrix(1.39253,0,0,1.39253,50.8091,-11.5853)"
       id="g22"
       style="fill:#f17228;fill-opacity:1">
      <path
         vector-effect="none"
         fill-rule="nonzero"
         d="m 29.416,35.223 c -0.089,0 -0.179,-0.007 -0.269,-0.021 -0.467,-0.07 -0.876,-0.318 -1.154,-0.697 -0.574,-0.784 -0.4,-1.899 0.389,-2.485 0.386,-0.287 0.861,-0.409 1.335,-0.337 0.467,0.07 0.877,0.317 1.155,0.697 0.574,0.783 0.4,1.898 -0.387,2.485 -0.316,0.235 -0.687,0.358 -1.069,0.358 m -0.004,-2.001 c -0.044,0 -0.087,0.014 -0.121,0.039 -0.092,0.068 -0.106,0.2 -0.032,0.301 0.038,0.053 0.099,0.09 0.162,0.099 0.056,0.008 0.112,-0.005 0.155,-0.036 0.09,-0.067 0.104,-0.2 0.03,-0.301 -0.038,-0.053 -0.099,-0.09 -0.161,-0.099 -0.011,-0.002 -0.022,-0.003 -0.033,-0.003"
         id="path21"
         style="fill:#f17228;fill-opacity:1" />
    </g>
    <g
       fill="#000000"
       fill-opacity="1"
       stroke="#000000"
       stroke-opacity="1"
       stroke-width="1"
       stroke-linecap="square"
       stroke-linejoin="miter"
       stroke-miterlimit="2"
       transform="matrix(1.39253,0,0,1.39253,50.8091,-11.5853)"
       id="g23"
       style="fill:#f17228;fill-opacity:1" />
    <g
       fill="#f58d00"
       fill-opacity="1"
       stroke="none"
       transform="matrix(1.39253,0,0,1.39253,50.8091,-11.5853)"
       id="g24"
       style="fill:#f17228;fill-opacity:1">
      <path
         vector-effect="none"
         fill-rule="nonzero"
         d="m 36.263,33.663 c -0.083,0 -0.167,-0.006 -0.251,-0.019 -0.436,-0.066 -0.819,-0.297 -1.079,-0.651 0,0 -10e-4,0 -10e-4,-0.001 -0.537,-0.732 -0.374,-1.774 0.362,-2.322 0.361,-0.27 0.802,-0.383 1.247,-0.314 0.437,0.065 0.82,0.297 1.08,0.651 0.537,0.732 0.376,1.774 -0.358,2.322 -0.296,0.22 -0.644,0.334 -1,0.334 m -0.247,-1.465 c 0.057,0.073 0.14,0.122 0.229,0.135 0.085,0.016 0.175,-0.008 0.243,-0.059 0.142,-0.105 0.168,-0.313 0.058,-0.464 l -0.53,0.388 m 0.245,-0.535 c -0.069,0 -0.138,0.021 -0.192,0.062 -0.144,0.107 -0.169,0.315 -0.06,0.465 0.002,0.003 0.004,0.006 0.006,0.009 L 36.544,31.81 C 36.487,31.733 36.402,31.681 36.31,31.667 36.293,31.664 36.276,31.663 36.261,31.663"
         id="path23"
         style="fill:#f17228;fill-opacity:1" />
    </g>
    <g
       fill="#000000"
       fill-opacity="1"
       stroke="#000000"
       stroke-opacity="1"
       stroke-width="1"
       stroke-linecap="square"
       stroke-linejoin="miter"
       stroke-miterlimit="2"
       transform="matrix(1.39253,0,0,1.39253,50.8091,-11.5853)"
       id="g25"
       style="fill:#f17228;fill-opacity:1" />
    <g
       fill="#000000"
       fill-opacity="1"
       stroke="#000000"
       stroke-opacity="1"
       stroke-width="1"
       stroke-linecap="square"
       stroke-linejoin="miter"
       stroke-miterlimit="2"
       transform="matrix(1.39253,0,0,1.39253,50.8091,-11.5853)"
       id="g26"
       style="fill:#f17228;fill-opacity:1" />
    <g
       fill="#000000"
       fill-opacity="1"
       stroke="#000000"
       stroke-opacity="1"
       stroke-width="1"
       stroke-linecap="square"
       stroke-linejoin="miter"
       stroke-miterlimit="2"
       transform="matrix(1.39253,0,0,1.39253,50.8091,-11.5853)"
       id="g27"
       style="fill:#f17228;fill-opacity:1" />
    <g
       fill="#000000"
       fill-opacity="1"
       stroke="#000000"
       stroke-opacity="1"
       stroke-width="1"
       stroke-linecap="square"
       stroke-linejoin="miter"
       stroke-miterlimit="2"
       transform="matrix(1.39253,0,0,1.39253,50.8091,-11.5853)"
       id="g28"
       style="fill:#f17228;fill-opacity:1" />
    <g
       fill="#000000"
       fill-opacity="1"
       stroke="#000000"
       stroke-opacity="1"
       stroke-width="1"
       stroke-linecap="square"
       stroke-linejoin="miter"
       stroke-miterlimit="2"
       transform="matrix(1.39253,0,0,1.39253,50.8091,-11.5853)"
       id="g29"
       style="fill:#f17228;fill-opacity:1" />
    <g
       fill="#000000"
       fill-opacity="1"
       stroke="#000000"
       stroke-opacity="1"
       stroke-width="1"
       stroke-linecap="square"
       stroke-linejoin="miter"
       stroke-miterlimit="2"
       transform="matrix(0.622439,0,0,0.622439,8.00845,8)"
       id="g30"
       style="fill:#f17228;fill-opacity:1" />
    <g
       fill="#000000"
       fill-opacity="1"
       stroke="#000000"
       stroke-opacity="1"
       stroke-width="1"
       stroke-linecap="square"
       stroke-linejoin="miter"
       stroke-miterlimit="2"
       transform="matrix(1.5202,0,0,1.5202,143.547,17.872)"
       id="g31"
       style="fill:#f17228;fill-opacity:1" />
    <g
       fill="#ffa833"
       fill-opacity="1"
       stroke="none"
       transform="matrix(1.5202,0,0,1.5202,143.547,17.872)"
       id="g32"
       style="fill:#f17228;fill-opacity:1">
      <path
         vector-effect="none"
         fill-rule="nonzero"
         d="m 9.674,12.46 h -2.76 v 5.64 h 2.78 V 20 H 5.014 V 5.72 h 4.68 v 1.9 h -2.78 v 2.94 h 2.76 v 1.9 0 m 7.534,-6.74 -1.9,7.16 1.88,7.12 h -1.7 l -1.04,-3.92 -1.02,3.92 h -1.7 l 1.88,-7.12 -1.9,-7.16 h 1.7 l 1.04,3.94 1.06,-3.94 h 1.7 M 21.122,17 v 2.98 h -1.9 V 5.72 h 2.96 c 1.32,0 2.38,1.08 2.38,2.4 v 6.5 c 0,1.32 -1.06,2.38 -2.38,2.38 h -1.06 m 0,-9.38 v 7.48 h 1.06 c 0.28,0 0.48,-0.2 0.48,-0.48 v -6.5 c 0,-0.28 -0.2,-0.5 -0.48,-0.5 h -1.06 v 0 m 10.934,12.42 h -2.04 l -1.1,-3.02 h -0.44 v 3.02 h -1.9 V 5.72 h 2.98 c 1.32,0 2.38,1.06 2.38,2.38 v 6.54 c 0,0.86 -0.44,1.6 -1.12,2.02 l 1.24,3.38 M 28.476,7.62 v 7.5 h 1.08 c 0.26,0 0.48,-0.22 0.48,-0.48 V 8.1 c 0,-0.26 -0.22,-0.48 -0.48,-0.48 h -1.08 v 0 m 10.254,4.84 h -2.76 v 5.64 h 2.78 V 20 H 34.07 V 5.72 h 4.68 v 1.9 h -2.78 v 2.94 h 2.76 v 1.9 0 m 4.774,7.66 c -1.52,0 -2.74,-1.24 -2.74,-2.74 V 15.2 h 1.94 v 2.18 c 0,0.44 0.36,0.8 0.8,0.8 0.44,0 0.78,-0.36 0.78,-0.8 v -1.9 l -3.52,-4.86 V 8.14 c 0,-1.52 1.22,-2.76 2.74,-2.76 1.5,0 2.72,1.24 2.72,2.76 v 2.16 h -1.94 V 8.14 c 0,-0.46 -0.34,-0.8 -0.78,-0.8 -0.44,0 -0.8,0.34 -0.8,0.8 v 1.82 l 3.52,4.86 v 2.56 c 0,1.5 -1.22,2.74 -2.72,2.74 m 7.474,0 c -1.52,0 -2.74,-1.24 -2.74,-2.74 V 15.2 h 1.94 v 2.18 c 0,0.44 0.36,0.8 0.8,0.8 0.44,0 0.78,-0.36 0.78,-0.8 v -1.9 l -3.52,-4.86 V 8.14 c 0,-1.52 1.22,-2.76 2.74,-2.76 1.5,0 2.72,1.24 2.72,2.76 v 2.16 h -1.94 V 8.14 c 0,-0.46 -0.34,-0.8 -0.78,-0.8 -0.44,0 -0.8,0.34 -0.8,0.8 v 1.82 l 3.52,4.86 v 2.56 c 0,1.5 -1.22,2.74 -2.72,2.74"
         id="path31"
         style="fill:#ffa712;fill-opacity:1" />
    </g>
    <g
       fill="#000000"
       fill-opacity="1"
       stroke="#000000"
       stroke-opacity="1"
       stroke-width="1"
       stroke-linecap="square"
       stroke-linejoin="miter"
       stroke-miterlimit="2"
       transform="matrix(1.5202,0,0,1.5202,143.547,17.872)"
       id="g33"
       style="fill:#f17228;fill-opacity:1" />
    <g
       fill="#000000"
       fill-opacity="1"
       stroke="#000000"
       stroke-opacity="1"
       stroke-width="1"
       stroke-linecap="square"
       stroke-linejoin="miter"
       stroke-miterlimit="2"
       transform="matrix(0.622439,0,0,0.622439,8.00845,8)"
       id="g34"
       style="fill:#f17228;fill-opacity:1" />
    <g
       fill="#000000"
       fill-opacity="1"
       stroke="#000000"
       stroke-opacity="1"
       stroke-width="1"
       stroke-linecap="square"
       stroke-linejoin="miter"
       stroke-miterlimit="2"
       transform="matrix(0.622439,0,0,0.622439,8.00845,8)"
       id="g35"
       style="fill:#f17228;fill-opacity:1" />
    <g
       fill="#000000"
       fill-opacity="1"
       stroke="#000000"
       stroke-opacity="1"
       stroke-width="1"
       stroke-linecap="square"
       stroke-linejoin="miter"
       stroke-miterlimit="2"
       id="g36"
       style="fill:#f17228;fill-opacity:1" />
    <g
       fill="#000000"
       fill-opacity="1"
       stroke="#000000"
       stroke-opacity="1"
       stroke-width="1"
       stroke-linecap="square"
       stroke-linejoin="miter"
       stroke-miterlimit="2"
       id="g37"
       style="fill:#f17228;fill-opacity:1" />
    <g
       fill="#000000"
       fill-opacity="1"
       stroke="#000000"
       stroke-opacity="1"
       stroke-width="1"
       stroke-linecap="square"
       stroke-linejoin="miter"
       stroke-miterlimit="2"
       id="g38"
       style="fill:#f17228;fill-opacity:1" />
    <g
       fill="#000000"
       fill-opacity="1"
       stroke="#000000"
       stroke-opacity="1"
       stroke-width="1"
       stroke-linecap="square"
       stroke-linejoin="miter"
       stroke-miterlimit="2"
       id="g39"
       style="fill:#f17228;fill-opacity:1" />
    <g
       fill="#000000"
       fill-opacity="1"
       stroke="#000000"
       stroke-opacity="1"
       stroke-width="1"
       stroke-linecap="square"
       stroke-linejoin="miter"
       stroke-miterlimit="2"
       transform="matrix(0.622439,0,0,0.622439,8.00845,8)"
       id="g40"
       style="fill:#f17228;fill-opacity:1" />
    <g
       fill="#000000"
       fill-opacity="1"
       stroke="#000000"
       stroke-opacity="1"
       stroke-width="1"
       stroke-linecap="square"
       stroke-linejoin="miter"
       stroke-miterlimit="2"
       transform="matrix(0.622439,0,0,0.622439,8.00845,8)"
       id="g41"
       style="fill:#f17228;fill-opacity:1" />
    <g
       fill="#000000"
       fill-opacity="1"
       stroke="#000000"
       stroke-opacity="1"
       stroke-width="1"
       stroke-linecap="square"
       stroke-linejoin="miter"
       stroke-miterlimit="2"
       transform="matrix(1.39253,0,0,1.39253,50.8091,-11.5853)"
       id="g42"
       style="fill:#f17228;fill-opacity:1" />
    <g
       fill="#000000"
       fill-opacity="1"
       stroke="#000000"
       stroke-opacity="1"
       stroke-width="1"
       stroke-linecap="square"
       stroke-linejoin="miter"
       stroke-miterlimit="2"
       transform="matrix(1.39253,0,0,1.39253,50.8091,-11.5853)"
       id="g43"
       style="fill:#f17228;fill-opacity:1" />
    <g
       fill="#000000"
       fill-opacity="1"
       stroke="#000000"
       stroke-opacity="1"
       stroke-width="1"
       stroke-linecap="square"
       stroke-linejoin="miter"
       stroke-miterlimit="2"
       transform="matrix(1.39253,0,0,1.39253,50.8091,-11.5853)"
       id="g44"
       style="fill:#f17228;fill-opacity:1" />
    <g
       fill="#000000"
       fill-opacity="1"
       stroke="#000000"
       stroke-opacity="1"
       stroke-width="1"
       stroke-linecap="square"
       stroke-linejoin="miter"
       stroke-miterlimit="2"
       transform="matrix(1.39253,0,0,1.39253,50.8091,-11.5853)"
       id="g45"
       style="fill:#f17228;fill-opacity:1" />
    <g
       fill="#000000"
       fill-opacity="1"
       stroke="#000000"
       stroke-opacity="1"
       stroke-width="1"
       stroke-linecap="square"
       stroke-linejoin="miter"
       stroke-miterlimit="2"
       transform="matrix(1.39253,0,0,1.39253,50.8091,-11.5853)"
       id="g46"
       style="fill:#f17228;fill-opacity:1" />
    <g
       fill="#000000"
       fill-opacity="1"
       stroke="#000000"
       stroke-opacity="1"
       stroke-width="1"
       stroke-linecap="square"
       stroke-linejoin="miter"
       stroke-miterlimit="2"
       transform="matrix(1.39253,0,0,1.39253,50.8091,-11.5853)"
       id="g47"
       style="fill:#f17228;fill-opacity:1" />
    <g
       fill="#000000"
       fill-opacity="1"
       stroke="#000000"
       stroke-opacity="1"
       stroke-width="1"
       stroke-linecap="square"
       stroke-linejoin="miter"
       stroke-miterlimit="2"
       transform="matrix(0.622439,0,0,0.622439,8.00845,8)"
       id="g48"
       style="fill:#f17228;fill-opacity:1" />
    <g
       fill="#000000"
       fill-opacity="1"
       stroke="#000000"
       stroke-opacity="1"
       stroke-width="1"
       stroke-linecap="square"
       stroke-linejoin="miter"
       stroke-miterlimit="2"
       transform="matrix(0.622439,0,0,0.622439,8.00845,8)"
       id="g49"
       style="fill:#f17228;fill-opacity:1" />
    <g
       fill="#000000"
       fill-opacity="1"
       stroke="#000000"
       stroke-opacity="1"
       stroke-width="1"
       stroke-linecap="square"
       stroke-linejoin="miter"
       stroke-miterlimit="2"
       transform="matrix(0.622439,0,0,0.622439,8.00845,8)"
       id="g50"
       style="fill:#f17228;fill-opacity:1" />
    <g
       fill="#000000"
       fill-opacity="1"
       stroke="#000000"
       stroke-opacity="1"
       stroke-width="1"
       stroke-linecap="square"
       stroke-linejoin="miter"
       stroke-miterlimit="2"
       id="g51"
       style="fill:#f17228;fill-opacity:1" />
    <g
       fill="#000000"
       fill-opacity="1"
       stroke="#000000"
       stroke-opacity="1"
       stroke-width="1"
       stroke-linecap="square"
       stroke-linejoin="miter"
       stroke-miterlimit="2"
       id="g52"
       style="fill:#f17228;fill-opacity:1" />
    <g
       fill="#000000"
       fill-opacity="1"
       stroke="#000000"
       stroke-opacity="1"
       stroke-width="1"
       stroke-linecap="square"
       stroke-linejoin="miter"
       stroke-miterlimit="2"
       id="g53"
       style="fill:#f17228;fill-opacity:1" />
    <g
       fill="#000000"
       fill-opacity="1"
       stroke="#000000"
       stroke-opacity="1"
       stroke-width="1"
       stroke-linecap="square"
       stroke-linejoin="miter"
       stroke-miterlimit="2"
       id="g54"
       style="fill:#f17228;fill-opacity:1" />
    <g
       fill="#000000"
       fill-opacity="1"
       stroke="#000000"
       stroke-opacity="1"
       stroke-width="1"
       stroke-linecap="square"
       stroke-linejoin="miter"
       stroke-miterlimit="2"
       id="g55"
       style="fill:#f17228;fill-opacity:1" />
    <g
       fill="#000000"
       fill-opacity="1"
       stroke="#000000"
       stroke-opacity="1"
       stroke-width="1"
       stroke-linecap="square"
       stroke-linejoin="miter"
       stroke-miterlimit="2"
       id="g56"
       style="fill:#f17228;fill-opacity:1" />
  </g>
</svg>
